<?xml version="1.0" encoding="iso-8859-1"?>
<!-- Generator: Adobe Illustrator 26.5.1, SVG Export Plug-In . SVG Version: 6.00 Build 0)  -->
<svg xmlns="http://www.w3.org/2000/svg" xmlns:xlink="http://www.w3.org/1999/xlink" version="1.1" id="Capa_1" x="0px" y="0px" viewBox="0 0 512 512" style="enable-background:new 0 0 512 512;" xml:space="preserve">
<g>
	<g>
		<g>
			
				<rect x="95.309" y="423.971" transform="matrix(0.1961 -0.9806 0.9806 0.1961 -316.9818 473.1517)" style="fill:#FFCB00;" width="69.543" height="11.858"/>
			
				<rect x="256.521" y="456.436" transform="matrix(0.2308 -0.973 0.973 0.2308 -226.9055 637.6991)" style="fill:#FFCB00;" width="66.737" height="11.86"/>
			
				<rect x="149.232" y="433.755" transform="matrix(0.1645 -0.9864 0.9864 0.1645 -283.3907 544.8201)" style="fill:#FFCB00;" width="61.318" height="11.859"/>
			
				<rect x="205.209" y="443.241" transform="matrix(0.1773 -0.9842 0.9842 0.1773 -248.4497 601.1294)" style="fill:#FFCB00;" width="60.251" height="11.862"/>
			
				<rect x="37.279" y="283.273" transform="matrix(0.1868 -0.9824 0.9824 0.1868 -285.2509 307.6582)" style="fill:#FFCB00;" width="11.86" height="85.712"/>
			
				<rect x="47.064" y="221.006" transform="matrix(0.1947 -0.9809 0.9809 0.1947 -212.9418 261.8501)" style="fill:#FFCB00;" width="11.859" height="79.196"/>
			
				<rect x="58.034" y="159.98" transform="matrix(0.2611 -0.9653 0.9653 0.2611 -143.3402 207.6398)" style="fill:#FFCB00;" width="11.858" height="74.944"/>
			
				<rect x="70.782" y="108.8" transform="matrix(0.2881 -0.9576 0.9576 0.2881 -83.0798 175.8175)" style="fill:#FFCB00;" width="11.86" height="69.974"/>
			
				<rect x="185.699" y="52.172" transform="matrix(0.1838 -0.983 0.983 0.1838 128.6706 271.1674)" style="fill:#FFCB00;" width="83.854" height="11.858"/>
			
				<rect x="233.054" y="63.141" transform="matrix(0.1531 -0.9882 0.9882 0.1531 165.1949 330.9033)" style="fill:#FFCB00;" width="85.208" height="11.86"/>
			
				<rect x="284.094" y="75.001" transform="matrix(0.1867 -0.9824 0.9824 0.1867 186.3961 387.0207)" style="fill:#FFCB00;" width="85.712" height="11.86"/>
			
				<rect x="335.733" y="85.97" transform="matrix(0.1812 -0.9834 0.9834 0.1812 219.3217 447.2289)" style="fill:#FFCB00;" width="85.02" height="11.862"/>
			
				<rect x="471.044" y="190.954" transform="matrix(0.2566 -0.9665 0.9665 0.2566 136.5197 628.73)" style="fill:#FFCB00;" width="11.861" height="69.328"/>
			
				<rect x="460.965" y="252.649" transform="matrix(0.2236 -0.9747 0.9747 0.2236 83.9456 676.991)" style="fill:#FFCB00;" width="11.858" height="66.313"/>
			
				<rect x="445.547" y="306.307" transform="matrix(0.2169 -0.9762 0.9762 0.2169 19.835 708.4122)" style="fill:#FFCB00;" width="11.859" height="71.071"/>
			
				<rect x="429.832" y="361.055" transform="matrix(0.283 -0.9591 0.9591 0.283 -70.0311 703.8567)" style="fill:#FFCB00;" width="11.861" height="75.428"/>
		</g>
		<g>
			<polygon style="fill:#002E41;" points="117.332,61.363 486.166,140.229 397.812,463.997 52.104,404.106    "/>
			<polygon style="fill:#E2ECEE;" points="136.191,105.03 451.477,159.89 378.243,419.523 85.311,372.532    "/>
			<path style="fill:#E2ECEE;" d="M389.779,450.562l-1.103-0.228L64.927,383.186l0.248-1.167l63.991-300.108l339.195,67.726     l-0.32,1.217L389.779,450.562z M67.744,381.347l320.312,66.436l77.372-296.311L130.995,84.695L67.744,381.347z"/>
		</g>
	</g>
	<g>
		<g>
			<g>
				<path style="fill:#FFB2F4;" d="M383.696,272.441c-1.621-1.515-4.582-3.5-8.112-5.289c9.115-9.589,13.354-26.192,12.063-37.802      c-2.766-21.742-27.277-33.997-46.253-37.951c-4.25-0.991-8.566-1.522-12.886-1.651c0.707-2.914,0.827-6.068,0.236-9.417      c-3.558-17.789-24.905-23.719-40.719-22.533c-10.041,0.838-24.782,6.609-34.411,15.342c-1.922-5.522-5.207-10.685-8.677-14.156      c-13.442-13.837-37.951-15.418-55.347-9.093c-19.765,7.116-33.207,26.882-33.207,47.835c0.123,2.557,0.283,5.417,0.665,8.297      c-16.689-0.182-28.377,10.718-29.918,27.282c-0.472,4.403,0.262,8.548,1.944,12.203c-1.434,0.379-2.77,0.908-3.919,1.633      c-9.488,5.93-13.442,20.557-10.28,30.835c2.534,7.404,8.242,12.877,15.123,16.203c-0.537,6.158,0.127,12.406,1.876,17.795      c7.07,23.135,36.86,21.459,55.831,10.468c1.042,2.374,2.909,4.398,5.839,5.741c5.837,2.818,12.494,2.245,18.825,0.176      c1.464,11.454,9.08,21.508,19.126,26.705c17.393,9.093,37.951,2.768,52.578-8.302c3.576-2.439,7.751-5.624,11.487-9.343      c-0.009,0.217-0.023,0.444-0.023,0.646c-0.79,13.046,7.512,24.905,20.951,26.486c13.402,1.578,22.478-5.496,25.274-18.47      c20.715,8.834,44.235,2.289,52.606-24.619C399.507,304.066,397.531,285.486,383.696,272.441z"/>
			</g>
			<g>
				<path style="fill:#E381D2;" d="M298.816,240.591c-7.563-1.379-11.922-4.186-12.955-8.339      c-1.661-6.679,6.069-14.718,10.034-18.316c-4.85-0.496-14.375-1.995-17.625-6.284c-1.093-1.445-1.441-3.073-1.028-4.839      c2.251-9.678,14.269-9.973,14.389-9.975l0.039,2.372c-0.419,0.007-10.289,0.277-12.117,8.142      c-0.248,1.062-0.049,1.999,0.607,2.866c3.044,4.018,14.551,5.387,18.728,5.574l3.178,0.143l-2.497,1.973      c-3.678,2.907-12.902,11.768-11.406,17.773c0.79,3.166,4.517,5.38,11.079,6.577L298.816,240.591z"/>
				<path style="fill:#E381D2;" d="M326.225,214.391l-2.302-0.572c2.18-8.763,1.378-15.354-2.383-19.588      c-6.064-6.824-18.012-5.402-18.128-5.387l-3.947,0.499l3.028-2.579c6.465-5.504,9.265-10.125,8.103-13.362      c-2.094-5.828-16.339-7.317-21.651-7.398l0.037-2.372c0.845,0.013,20.773,0.418,23.847,8.968      c1.38,3.845-0.681,8.352-6.301,13.724c4.387,0.03,11.987,0.942,16.775,6.322C327.622,197.5,328.607,204.817,326.225,214.391z"/>
				<path style="fill:#E381D2;" d="M380.944,337.804c-7.468-0.018-12.05-1.872-13.62-5.507c-2.312-5.361,2.891-12.897,5.772-16.475      c-4.772-0.1-14.477-1.028-17.21-6.787c-0.685-1.447-0.674-2.929,0.03-4.287c2.631-5.062,14.524-7.233,15.871-7.463l0.401,2.337      c-3.34,0.573-12.397,2.81-14.169,6.221c-0.364,0.702-0.361,1.393,0.012,2.175c2.414,5.088,13.518,5.618,17.604,5.408      l2.949-0.161l-2.02,2.155c-2.654,2.834-9.098,11.22-7.06,15.937c1.161,2.688,5.013,4.059,11.445,4.074L380.944,337.804z"/>
				<path style="fill:#E381D2;" d="M190.435,309.472l-2.363-0.215c2.048-22.532-1.955-29.057-5.673-30.562      c-8.021-3.242-22.994,12.451-28.092,18.774l-1.161,1.438l-0.824-1.654c-2.143-4.297-8.719-15.732-13.368-17.029      c-0.683-0.191-1.246-0.129-1.763,0.197c-4.487,2.836-2.617,12.964-1.519,16.629l-2.27,0.682      c-0.183-0.608-4.399-14.939,2.52-19.315c1.096-0.692,2.333-0.851,3.671-0.477c5.501,1.536,11.735,12.355,14.023,16.654      c4.371-5.108,19.858-22.063,29.672-18.1C189.872,279.16,192.209,289.947,190.435,309.472z"/>
				<path style="fill:#E381D2;" d="M191.239,321.449c-0.144,0-0.287-0.006-0.431-0.018c-6.835-0.53-11.313-14.204-12.971-20.289      c-2.645,3.71-5.307,5.443-7.926,5.187c-3.15-0.32-5.251-3.47-6.319-5.578c-6.101,7.45-11.209,10.465-15.6,9.22      c-7.111-2.026-8.545-14.951-8.603-15.5l2.358-0.248c0.35,3.3,2.27,12.152,6.898,13.467c3.523,0.998,8.485-2.435,14.308-9.945      l1.341-1.728l0.718,2.066c0.537,1.547,2.511,5.622,5.14,5.886c2.133,0.225,4.563-1.989,7.146-6.359l1.512-2.555l0.665,2.894      c1.825,7.96,6.567,20.732,11.517,21.116c2.092,0.168,5.443-1.845,9.627-12.308l2.2,0.88      C199.11,316.923,195.315,321.448,191.239,321.449z"/>
				<path style="fill:#E381D2;" d="M380.659,329.027l-1.645-1.709c5.916-5.696,8.39-10.414,7.15-13.646      c-1.814-4.734-11.331-6.086-14.848-6.208l-2.988-0.103l2.247-1.972c9.277-8.145,8.828-10.808,8.468-11.43      c-2.724-4.723-32.331,2.767-52.479,9.591l-0.76-2.247c8.411-2.848,50.614-16.642,55.291-8.53      c1.552,2.687-0.653,6.706-6.926,12.563c4.283,0.536,12.193,2.228,14.208,7.487C390.01,317.074,387.411,322.526,380.659,329.027z      "/>
				<path style="fill:#E381D2;" d="M177.151,194.963c-2.059-14.925-1.779-22.891,0.834-23.675c0.676-0.205,1.394-0.118,2.073,0.259      c1.478,0.82,2.715,3.092,3.602,5.23c1.57-6.657,5.446-18.761,13.201-20.957c4.816-1.366,10.206,1.282,16.02,7.863      c2.717-2.007,10.838-7.303,17.532-4.472c5.01,2.122,7.933,8.232,8.691,18.163l-2.367,0.181      c-0.683-8.971-3.12-14.408-7.246-16.158c-6.657-2.83-15.922,4.747-16.015,4.824l-0.903,0.749l-0.76-0.895      c-5.443-6.432-10.257-9.114-14.303-7.973c-9.112,2.579-12.346,23.186-12.378,23.395l-0.841,5.534l-1.476-5.399      c-0.781-2.86-2.511-7.235-3.908-8.01c-0.155-0.087-0.216-0.071-0.241-0.061c-1.003,1.195-0.433,11.893,0.834,21.079      L177.151,194.963z"/>
				<path style="fill:#E381D2;" d="M160.948,278.046c-1.091,0-2.078-0.249-2.965-0.746c-5.536-3.096-4.452-14.863-3.711-19.868      c-5.416,2.077-17.938,6.29-21.322,2.338c-3.984-4.646,5.443-17.374,7.373-19.877l1.881,1.448      c-4.311,5.594-9.471,14.53-7.452,16.887c2.066,2.412,13.287-0.753,20.585-3.771l2.038-0.842l-0.419,2.163      c-0.887,4.575-2.224,16.989,2.184,19.453c1.918,1.076,6.048,0.685,14.764-7.321l1.603,1.746      C169.396,275.271,164.592,278.045,160.948,278.046z"/>
				<path style="fill:#E381D2;" d="M240.157,210.926c-0.704,0-1.397-0.072-2.085-0.217c-11.834-2.491-16.261-26.664-17.521-35.806      c-4,6.08-8.065,8.954-12.131,8.544c-8.07-0.812-12.571-14.404-12.758-14.982l2.256-0.732c1.149,3.53,5.318,12.811,10.741,13.354      c3.565,0.357,7.612-3.206,11.626-10.31l1.855-3.282l0.359,3.754c0.032,0.344,3.44,34.484,16.061,37.14      c7.123,1.481,16.425-7.735,27.018-26.669l2.071,1.158C257.113,201.71,248.091,210.926,240.157,210.926z"/>
				<path style="fill:#E381D2;" d="M260.835,349.356c-1.8,0-3.373-0.396-4.725-1.187c-7.591-4.438-4.287-19.613-4.144-20.256      l2.316,0.519c-0.032,0.14-3.076,14.126,3.027,17.691c4.188,2.449,14.232,0.806,38.308-20.875l1.228-1.104l0.656,1.514      c1.677,3.867,7.019,13.809,11.707,13.809c0.044,0,0.088-0.001,0.132-0.002c2.351-0.094,4.565-2.993,6.409-8.382l0.866-2.539      l1.295,2.351c1.985,3.609,8.336,12.771,13.636,11.912c2.886-0.47,6.905-4.194,9.654-19.262l2.335,0.426      c-2.441,13.378-6.24,20.305-11.612,21.178c-6.196,1.004-12.237-7-14.804-10.98c-2.089,5.03-4.616,7.543-7.688,7.665      c-6.06,0.231-11.503-9.741-13.428-13.749C280.005,342.332,268.41,349.355,260.835,349.356z"/>
				<path style="fill:#E381D2;" d="M353.945,336.798c-2.502-16.327-6.66-20.393-9.708-20.929      c-6.025-1.046-13.551,10.099-15.95,14.486l-1.267,2.318l-0.889-2.487c-5.807-16.226-9.664-17.647-11.118-17.555      c-3.544,0.321-6.409,9.821-7.382,15.734l-0.922,5.603l-1.397-5.504c-1.496-5.889-4.051-9.343-7.595-10.264      c-8.765-2.28-21.074,10.654-21.197,10.786l-1.723-1.628c0.544-0.577,13.421-14.086,23.518-11.453      c3.423,0.889,6.066,3.486,7.889,7.739c1.29-5.157,3.993-12.957,8.596-13.374c4.183-0.356,8.234,4.965,12.7,16.767      c2.882-4.612,10.081-14.74,17.15-13.503c5.622,0.99,9.43,8.482,11.639,22.906L353.945,336.798z"/>
				<path style="fill:#E381D2;" d="M312.925,263.233l-1.399-1.913c14.755-10.805,16.773-17.046,15.869-20.38      c-1.584-5.831-12.805-7.043-12.918-7.054l-2.953-0.302l2.349-1.816c3.641-2.817,3.405-3.848,3.4-3.857      c-0.591-1.347-8.366-1.316-16.309,0.063l-4.531,0.785l3.583-2.878c6.06-4.868,8.649-9.067,7.695-12.481      c-1.677-5.995-14.215-8.916-18.904-9.535l0.31-2.351c0.753,0.1,18.44,2.533,20.877,11.248c1.031,3.683-0.788,7.798-5.411,12.267      c5.747-0.733,13.525-1.11,14.862,1.925c0.734,1.667-0.521,3.464-2.119,4.993c3.891,0.802,10.889,2.975,12.355,8.368      C331.307,246.29,325.827,253.787,312.925,263.233z"/>
				<path style="fill:#E381D2;" d="M283.538,305.814c-5.464,0.001-10.02-8.363-12.253-13.349c-0.322,1.177-0.734,2.525-1.237,3.865      c-2.022,5.392-4.48,7.865-7.297,7.332c-5.867-1.101-3.998-20.739-3.285-26.732l2.353,0.28      c-1.339,11.272-1.11,23.654,1.367,24.12c1.471,0.266,3.15-1.858,4.639-5.834c1.297-3.46,1.983-7.083,1.99-7.119l0.795-4.26      l1.485,4.071c1.547,4.246,6.618,15.253,11.443,15.253c0.005,0,0.007,0,0.011,0c2.523-0.009,5.029-3.302,7.246-9.521l2.233,0.797      c-2.654,7.454-5.754,11.084-9.471,11.096C283.552,305.814,283.545,305.814,283.538,305.814z"/>
				<path style="fill:#E381D2;" d="M300.676,289.721l-2.367-0.127c0.331-6.138-0.642-9.961-2.807-11.057      c-2.668-1.349-7.037,1.489-8.499,2.695l-2.288,1.884l0.357-2.943c0.479-3.95,0.324-8.014-0.313-8.936      c-0.771,0.759-1.997,4.226-2.68,7.674l-0.711,3.595l-1.529-3.331c-3.512-7.643-5.698-8.192-6.439-8.069      c-2.701,0.424-4.904,8.934-5.608,14.841l-2.353-0.28c0.317-2.673,2.173-16.051,7.593-16.903c2.502-0.393,4.901,1.677,7.493,6.46      c0.697-2.475,1.8-5.397,3.259-6.19c0.56-0.306,1.184-0.35,1.76-0.119c2.184,0.875,2.376,5.283,2.126,8.978      c2.284-1.374,5.937-2.968,8.895-1.474C299.729,278.012,301.072,282.363,300.676,289.721z"/>
				<path style="fill:#E381D2;" d="M205.1,280.499c-0.232-2.116-2.043-20.783,5.376-24.598c3.051-1.567,7.051-0.365,11.906,3.573      c1.844-7.847,9.55-36.428,25.035-41.791c5.547-1.92,11.461-0.656,17.595,3.774c-0.774-6.468-1.603-21.772,6.231-30.166      c4.185-4.48,10.194-6.289,17.859-5.395l-0.278,2.356c-6.889-0.808-12.209,0.76-15.846,4.657      c-9.089,9.737-5.237,30.881-5.198,31.094l0.619,3.283l-2.55-2.16c-6.296-5.331-12.233-7.079-17.655-5.204      c-16.33,5.654-23.844,41.607-23.919,41.97l-0.415,2.023l-1.538-1.377c-3.259-2.915-7.785-6.071-10.76-4.528      c-5.07,2.605-4.681,16.931-4.104,22.231L205.1,280.499z"/>
				<path style="fill:#E381D2;" d="M219.609,290.687c-0.051,0-0.102-0.001-0.155-0.004c-6.956-0.396-9.881-20.305-10.398-24.293      l2.353-0.304c1.179,9.103,4.496,22.019,8.179,22.229c0.019,0.001,0.035,0.001,0.053,0.001c3.136,0,7.635-15.941,9.891-30.946      l0.873-5.812l1.448,5.696c1.473,5.787,4.494,14.342,6.604,15.24c0.13,0.055,0.176,0.037,0.245-0.001      c2.001-1.692,2.075-21.937,0.982-39.715l-0.12-1.944l1.784,0.785c0.215,0.094,21.905,9.525,30.221,2.418      c3.498-2.994,4.155-8.716,1.953-17.01l2.293-0.609c2.455,9.251,1.545,15.786-2.705,19.423      c-8.019,6.856-25.32,0.892-30.944-1.319c0.725,12.644,1.649,37.793-2.291,40.032c-0.732,0.421-1.541,0.463-2.347,0.122      c-2.631-1.121-5.019-7.132-6.507-11.752C229.185,273.261,225.249,290.687,219.609,290.687z"/>
			</g>
		</g>
		<path style="fill:#002E41;" d="M373.511,259.596c0-4.142-5.39-7.499-12.04-7.499c-6.65,0-12.04,3.357-12.04,7.499    c0,2.327,1.737,4.379,4.406,5.755c-10.088,12.51-19.277,19.765-27.11,21.398c12.802-18.542,17.951-40.944,19.971-54.161    c7.308-0.676,12.916-4.524,12.916-9.183c0-5.136-6.808-9.3-15.204-9.3c-8.399,0-15.207,4.164-15.207,9.3    c0,4.084,4.311,7.545,10.296,8.795c-2.182,13.46-7.692,36.384-21.146,53.909c-10.331-4.104-16.648-20.453-19.432-31.181    c2.599-0.858,4.341-2.375,4.341-4.116c0-2.686-4.111-4.863-9.184-4.863c-5.073,0-9.184,2.177-9.184,4.863    c0,2.255,2.912,4.134,6.842,4.684c2.379,9.654,8.703,29.328,21.811,36.252c-2.455,2.594-5.124,5.011-8.038,7.178    c-14.66,10.903-33.309,14.043-55.46,9.384l10.437-46.739c6.991-0.622,12.406-4.934,12.406-10.171    c0-5.663-6.333-10.256-14.144-10.256c-7.813,0-14.144,4.592-14.144,10.256c0,4.278,3.613,7.94,8.744,9.478l-10.217,45.756    c-24.247-6.573-40.712-18.47-48.923-35.431c-2.101-4.335-3.546-8.809-4.514-13.296c9.71-2.725,20.307-11.486,31.674-26.188    c6.627-0.017,11.992-3.365,11.992-7.496c0-4.142-5.39-7.499-12.04-7.499c-6.65,0-12.04,3.357-12.04,7.499    c0,2.327,1.737,4.379,4.406,5.755c-9.254,11.475-17.748,18.531-25.135,20.878c-1.77-16.343,2.159-31.969,5.082-40.815    c4.255-1.131,7.292-3.984,7.292-7.352c0-4.357-5.059-7.888-11.299-7.888c-6.24,0-11.299,3.531-11.299,7.888    c0,3.484,3.257,6.406,7.746,7.45c-3.044,9.748-6.458,25.131-4.656,41.445c-0.405-0.053-0.815-0.089-1.212-0.18    c-11.531-2.625-18.473-20.441-21.435-31.85c2.599-0.858,4.341-2.375,4.341-4.116c0-2.686-4.111-4.863-9.184-4.863    c-5.073,0-9.184,2.177-9.184,4.863c0,2.255,2.912,4.134,6.842,4.684c2.676,10.858,10.333,34.41,27.032,38.217    c1.3,0.298,2.622,0.439,3.961,0.483c1.086,5.174,2.756,10.369,5.207,15.44c9.182,18.995,27.289,32.199,53.797,39.318    l-14.347,64.252l6.944,1.552l14.327-64.155c7.155,1.51,14.009,2.312,20.511,2.312c15.554,0,29.204-4.316,40.765-12.923    c4.2-3.127,7.931-6.686,11.262-10.519c0.781,0.088,1.57,0.134,2.365,0.134c11.401,0,24.182-9.121,38.113-27.141    C368.147,267.074,373.511,263.727,373.511,259.596z"/>
	</g>
</g>
<g>
</g>
<g>
</g>
<g>
</g>
<g>
</g>
<g>
</g>
<g>
</g>
<g>
</g>
<g>
</g>
<g>
</g>
<g>
</g>
<g>
</g>
<g>
</g>
<g>
</g>
<g>
</g>
<g>
</g>
</svg>
