<svg height="512" viewBox="0 0 512 512" width="512" xmlns="http://www.w3.org/2000/svg"><g id="Stickers"><path d="m504.815 49.286a31.3 31.3 0 0 0 -31.1-31.047l-435.169-1.5a31.311 31.311 0 0 0 -31.222 31.061c-1.41 278.1-1.324 260.208-1.324 261-.088 16.572 12.413 30.267 28.155 30.267l193.614-1.844-.305.891c-3.893 11.464 3.45 38.235 21.135 51.624 15.657 11.855 29.941 18.9 46.786 22.961 25.227 45.845 45.049 80.989 45.423 81.657 9.3.886 22.353 4.157 47.515-11.186 30.846-18.807 36.061-36.869 39.278-41.294a635.418 635.418 0 0 1 -46.7-73.291c-2.109-6.818-4.126-13.435-6.106-19.923-1.329-4.356-2.626-8.606-3.915-12.805l107.226-1.022c15.469-.124 27.982-13.7 27.894-30.262z" fill="#fff"/><path d="m493.738 304.628c.053 9.842-6.985 17.872-15.729 17.941l-443.739 4.231c-8.849.07-16.061-8-16.008-17.942l1.271-249.006.053-12a18.965 18.965 0 0 1 19.021-18.852l435.064 1.5a18.946 18.946 0 0 1 18.883 18.847l.052 11.967z" fill="#eae5db"/><path d="m492.606 61.315-473.073-1.463.053-12a18.965 18.965 0 0 1 19.021-18.852l435.064 1.5a18.946 18.946 0 0 1 18.883 18.847z" fill="#b2aca3"/><rect fill="#7ad001" height="42.22" rx="12.119" width="189.333" x="69.855" y="160.372"/><rect fill="#7ad001" height="42.22" rx="12.119" width="189.333" x="69.855" y="217.701"/><rect fill="#00abfe" height="20.696" rx="5.941" width="75.955" x="69.855" y="120.843"/><path d="m427.287 112.576c-12.947.915-34.48 0-50.166-13.065a12.238 12.238 0 0 0 -15.584 0c-15.686 13.068-37.219 13.98-50.166 13.065a10.687 10.687 0 0 0 -11.418 10.534c-.224 15.863-.459 45.958.214 81.138.707 36.982 35.187 55.589 55.188 63.285a38.943 38.943 0 0 0 27.948 0c20-7.7 54.48-26.3 55.188-63.285.673-35.18.438-65.275.214-81.138a10.687 10.687 0 0 0 -11.418-10.534z" fill="#ffb020"/><path d="m359.733 256.153c-17.449-6.714-46.806-22.415-47.375-52.139-.655-34.241-.44-63.745-.234-79.174 20.185 1.172 41.547-2.905 57.217-15.961 15.689 13.091 36.974 17.1 57.193 15.963.206 15.429.421 44.931-.234 79.172-.569 29.724-29.927 45.425-47.376 52.139a26.753 26.753 0 0 1 -19.191 0z" fill="#ff605b"/><path d="m331.073 183.656 20.97 32.59a11.689 11.689 0 0 0 19.574.13l41.444-62.561a9.108 9.108 0 0 0 -2.431-12.534 9.109 9.109 0 0 0 -12.57 2.2l-37.013 51.739-14.656-21.67a9.176 9.176 0 0 0 -12.983-2.292 9.175 9.175 0 0 0 -2.335 12.398z" fill="#7ad001"/><g fill="#fff"><path d="m104.224 183.093 6.894-6.081a2.811 2.811 0 0 0 0-4.326 3.805 3.805 0 0 0 -4.906 0l-3.425 3.021v-3.863a3.469 3.469 0 1 0 -6.937 0v3.863l-3.426-3.021a3.8 3.8 0 0 0 -4.905 0 2.81 2.81 0 0 0 0 4.326l6.894 6.081-6.894 6.081a2.81 2.81 0 0 0 0 4.326 3.8 3.8 0 0 0 4.905 0l3.426-3.021v3.864a3.469 3.469 0 0 0 6.937 0v-3.864l3.425 3.021a3.805 3.805 0 0 0 4.906 0 2.811 2.811 0 0 0 0-4.326z"/><path d="m137.9 183.093 6.894-6.081a2.81 2.81 0 0 0 0-4.326 3.8 3.8 0 0 0 -4.905 0l-3.425 3.021v-3.863a3.469 3.469 0 0 0 -6.938 0v3.863l-3.425-3.021a3.8 3.8 0 0 0 -4.905 0 2.81 2.81 0 0 0 0 4.326l6.894 6.081-6.894 6.081a2.81 2.81 0 0 0 0 4.326 3.8 3.8 0 0 0 4.905 0l3.425-3.021v3.864a3.469 3.469 0 0 0 6.938 0v-3.864l3.425 3.021a3.8 3.8 0 0 0 4.905 0 2.81 2.81 0 0 0 0-4.326z"/><path d="m171.577 183.093 6.894-6.081a2.81 2.81 0 0 0 0-4.326 3.8 3.8 0 0 0 -4.905 0l-3.426 3.021v-3.863a3.469 3.469 0 1 0 -6.937 0v3.863l-3.425-3.021a3.805 3.805 0 0 0 -4.906 0 2.811 2.811 0 0 0 0 4.326l6.894 6.081-6.894 6.081a2.811 2.811 0 0 0 0 4.326 3.805 3.805 0 0 0 4.906 0l3.425-3.021v3.864a3.469 3.469 0 0 0 6.937 0v-3.864l3.426 3.021a3.8 3.8 0 0 0 4.905 0 2.81 2.81 0 0 0 0-4.326z"/><path d="m205.254 183.093 6.894-6.081a2.811 2.811 0 0 0 0-4.326 3.805 3.805 0 0 0 -4.906 0l-3.425 3.021v-3.863a3.469 3.469 0 1 0 -6.937 0v3.863l-3.426-3.021a3.8 3.8 0 0 0 -4.905 0 2.81 2.81 0 0 0 0 4.326l6.894 6.081-6.894 6.081a2.81 2.81 0 0 0 0 4.326 3.8 3.8 0 0 0 4.905 0l3.426-3.021v3.864a3.469 3.469 0 0 0 6.937 0v-3.864l3.425 3.021a3.805 3.805 0 0 0 4.906 0 2.811 2.811 0 0 0 0-4.326z"/><path d="m238.93 183.093 6.894-6.081a2.81 2.81 0 0 0 0-4.326 3.8 3.8 0 0 0 -4.905 0l-3.425 3.021v-3.863a3.469 3.469 0 0 0 -6.938 0v3.863l-3.425-3.021a3.8 3.8 0 0 0 -4.905 0 2.81 2.81 0 0 0 0 4.326l6.894 6.081-6.894 6.081a2.81 2.81 0 0 0 0 4.326 3.8 3.8 0 0 0 4.905 0l3.425-3.021v3.864a3.469 3.469 0 0 0 6.938 0v-3.864l3.425 3.021a3.8 3.8 0 0 0 4.905 0 2.81 2.81 0 0 0 0-4.326z"/><path d="m104.224 238.811 6.894-6.081a2.811 2.811 0 0 0 0-4.326 3.805 3.805 0 0 0 -4.906 0l-3.425 3.021v-3.864a3.469 3.469 0 0 0 -6.937 0v3.864l-3.426-3.025a3.8 3.8 0 0 0 -4.905 0 2.81 2.81 0 0 0 0 4.326l6.894 6.081-6.894 6.081a2.81 2.81 0 0 0 0 4.326 3.8 3.8 0 0 0 4.905 0l3.426-3.014v3.863a3.469 3.469 0 1 0 6.937 0v-3.863l3.425 3.021a3.805 3.805 0 0 0 4.906 0 2.811 2.811 0 0 0 0-4.326z"/><path d="m137.9 238.811 6.894-6.081a2.81 2.81 0 0 0 0-4.326 3.8 3.8 0 0 0 -4.905 0l-3.425 3.021v-3.864a3.469 3.469 0 0 0 -6.938 0v3.864l-3.426-3.025a3.8 3.8 0 0 0 -4.905 0 2.81 2.81 0 0 0 0 4.326l6.894 6.081-6.894 6.081a2.81 2.81 0 0 0 0 4.326 3.8 3.8 0 0 0 4.905 0l3.425-3.021v3.863a3.469 3.469 0 0 0 6.938 0v-3.856l3.425 3.021a3.8 3.8 0 0 0 4.905 0 2.81 2.81 0 0 0 0-4.326z"/><path d="m171.577 238.811 6.894-6.081a2.81 2.81 0 0 0 0-4.326 3.8 3.8 0 0 0 -4.905 0l-3.426 3.021v-3.864a3.469 3.469 0 0 0 -6.937 0v3.864l-3.425-3.021a3.805 3.805 0 0 0 -4.906 0 2.811 2.811 0 0 0 0 4.326l6.894 6.081-6.894 6.081a2.811 2.811 0 0 0 0 4.326 3.805 3.805 0 0 0 4.906 0l3.422-3.018v3.863a3.469 3.469 0 1 0 6.937 0v-3.863l3.426 3.021a3.8 3.8 0 0 0 4.905 0 2.81 2.81 0 0 0 0-4.326z"/><path d="m205.254 238.811 6.894-6.081a2.811 2.811 0 0 0 0-4.326 3.805 3.805 0 0 0 -4.906 0l-3.425 3.021v-3.864a3.469 3.469 0 0 0 -6.937 0v3.864l-3.426-3.021a3.8 3.8 0 0 0 -4.905 0 2.81 2.81 0 0 0 0 4.326l6.894 6.081-6.894 6.081a2.81 2.81 0 0 0 0 4.326 3.8 3.8 0 0 0 4.905 0l3.426-3.021v3.863a3.469 3.469 0 1 0 6.937 0v-3.86l3.425 3.021a3.805 3.805 0 0 0 4.906 0 2.811 2.811 0 0 0 0-4.326z"/><path d="m238.93 238.811 6.894-6.081a2.81 2.81 0 0 0 0-4.326 3.8 3.8 0 0 0 -4.905 0l-3.425 3.021v-3.864a3.469 3.469 0 0 0 -6.938 0v3.864l-3.425-3.021a3.8 3.8 0 0 0 -4.905 0 2.81 2.81 0 0 0 0 4.326l6.894 6.081-6.894 6.081a2.81 2.81 0 0 0 0 4.326 3.8 3.8 0 0 0 4.905 0l3.425-3.021v3.863a3.469 3.469 0 0 0 6.938 0v-3.86l3.425 3.021a3.8 3.8 0 0 0 4.905 0 2.81 2.81 0 0 0 0-4.326z"/></g><path d="m257.021 325.058c-4.418-1.087-9.106 1.3-12.033 4.788s-4.45 7.9-5.914 12.209c-2.043 6.015 3.394 27.659 16.926 37.9 20.889 15.814 38.184 21.867 64.271 24.3a370.612 370.612 0 0 0 -15.371-37.016c-4.552-9.478-9.6-18.9-16.88-26.486-8.414-8.772-19.963-12.981-30.999-15.695z" fill="#ffad92"/><path d="m265.87 309.317c-6.29 2.554-13.137 5.621-15.987 11.783-1.567 3.388-3.41 7.992-1.18 10.985 7.3 9.789 17.145 24.487 30.8 30.282 4.045 1.716 7.917 1.837 10.591-1.648a11.357 11.357 0 0 0 1.933-5.24c1.167-7.475-.622-15.2-3.993-21.977s-8.255-12.681-13.5-18.135c-2.682-2.797-6.214-5.718-8.664-6.05z" fill="#ed6c4d"/><path d="m264.03 351.905a12.369 12.369 0 0 1 2.393-9.19 21.18 21.18 0 0 1 2.37-2.778c-4.871-1.282-9.767-2.8-14.126-5.546a2.5 2.5 0 0 1 2.666-4.231c4.575 2.883 10.2 4.31 15.648 5.69 4.137 1.753 4.241 3.367 2.588 4.749a27.923 27.923 0 0 0 -5.056 4.993 7.561 7.561 0 0 0 -1.559 5.448 2.5 2.5 0 1 1 -4.924.865z" fill="#c6523c"/><path d="m413.1 442.725c-7.082 12.739-18.715 22.385-31.159 29.973-10.158 6.193-21.721 11.349-33.554 10.116-29.27-52.027-56.772-102.408-84.274-152.788-8.458-23.982-17.377-45.85-26.295-67.718-1.119-2.742-2.255-5.573-2.25-8.535s1.433-6.123 4.159-7.282c4.508-1.917 9.121 2.3 12.125 6.17a242.757 242.757 0 0 1 29.415 48.191c19.653-4.135 40.885-8.123 59.187.145a21.844 21.844 0 0 1 8.51 6.123c2.5 3.232 3.473 7.359 4.415 13.755 5.37 16.925 10.428 33.949 16.161 52.462a622.063 622.063 0 0 0 43.56 69.388z" fill="#ffad92"/><path d="m289.885 326.988a2.5 2.5 0 0 1 1.514-3.194c10.009-3.569 35.235-11.349 48.2-13.159a2.5 2.5 0 1 1 .691 4.951c-12.025 1.681-36.746 9.187-47.207 12.917a2.5 2.5 0 0 1 -3.198-1.515z" fill="#ed6c4d"/><path d="m286.042 315.981-7.08-13.889a2.5 2.5 0 1 1 4.455-2.27l7.08 13.888a2.5 2.5 0 1 1 -4.455 2.271z" fill="#ed6c4d"/><path d="m303.742 312.388c-1.374-1.375-2.633-2.843-3.966-4.4a61.7 61.7 0 0 0 -6.585-6.9 2.5 2.5 0 0 1 3.262-3.789 66.6 66.6 0 0 1 7.119 7.433c1.27 1.481 2.468 2.878 3.707 4.119a2.5 2.5 0 1 1 -3.537 3.534z" fill="#ed6c4d"/><path d="m317.742 309.046c-1.491-1.475-2.708-2.9-3.884-4.289a37 37 0 0 0 -5.467-5.57 2.5 2.5 0 1 1 3.08-3.938 41.5 41.5 0 0 1 6.2 6.27c1.107 1.3 2.252 2.649 3.59 3.972a2.5 2.5 0 0 1 -3.516 3.555z" fill="#ed6c4d"/><path d="m330.968 306.491c-2.261-2.791-4.692-5.956-7.821-7.639a2.5 2.5 0 0 1 2.37-4.4c3.905 2.1 6.592 5.507 9.322 8.878a2.5 2.5 0 1 1 -3.871 3.164z" fill="#ed6c4d"/></g></svg>