<svg id="Layer_1" enable-background="new 0 0 150 150" viewBox="0 0 150 150" xmlns="http://www.w3.org/2000/svg"><g id="_x33_8"><g><path d="m135.308548 25.6725216c-5.2074432 0-9.5052414 4.2148037-9.5052414 9.4838085 0-5.2303734-4.2533875-9.4838085-9.4853668-9.4838085 5.279335 0 9.4853668-4.3090019 9.4853668-9.5051403 0 5.2485866 4.2567825 9.5051403 9.5052414 9.5051403" fill="#70e474"/></g><g><path d="m23.0021286 110.6484222c-3.2911205 0-6.0073452 2.6637726-6.0073452 5.9937973 0-3.3056107-2.6881552-5.9937973-5.9947834-5.9937973 3.3365564 0 5.9947834-2.7233047 5.9947834-6.0072784 0 3.3171234 2.6903057 6.0072784 6.0073452 6.0072784" fill="#9f7bf9"/></g><g><path d="m33.940094 22.0668602c-1.9739685 0-3.6031208 1.5976906-3.6031208 3.5949955 0-1.9826603-1.612318-3.5949955-3.5955868-3.5949955 2.0012188 0 3.5955868-1.6334 3.5955868-3.6030827 0 1.9895649 1.6136074 3.6030827 3.6031208 3.6030827" fill="#a9ccff"/></g><g><path d="m131.709198 118.3500366c-1.9739685 0-3.6031189 1.5976868-3.6031189 3.5949936 0-1.9826584-1.6123199-3.5949936-3.5955887-3.5949936 2.0012131 0 3.5955887-1.6334 3.5955887-3.6030807 0 1.989563 1.6136017 3.6030807 3.6031189 3.6030807" fill="#fdcc59"/></g><g><path d="m117.6192932 124.5803528c-61.1734161 5.2931213-14.5050125 1.2621918-77.6304321 6.7168427l-18.9640369 1.6438599c5.3778496-27.270256 3.4727421-55.6074142-4.6375885-84.5432358-.0435219-.1524239-.0870438-.3048477-.1306305-.4572716-.1197338-.4027901-.2285709-.8164749-.3483047-1.219265-.0435877-.1631889-.0980062-.3157463-.1415281-.4789352-.9580021-3.2985878-1.9922171-6.5971794-3.1135416-9.9066658.1361837-.0117874 96.4842606-8.3501492 96.6053696-8.36063 10.3061655 31.7878913 12.4951838 64.3732375 8.3606928 96.6053008z" fill="#ff6545"/></g><g><g><path d="m139 105.5183716-20.1614456 7.1197052c-.0435867.6748123-.0979996 1.3498993-.1742172 2.0356064l-26.9871903 12.1493148-17.1677704 1.4912872-26.9327736 9.5147095c-.1415291-2.3841095-.3265762-4.757309-.5878372-7.1305237l-6.9999046.5987244c.0870438-37.2639542-18.778923-74.0923691-23.6016254-82.8993759-.4789352-.8600616-.8055782-1.4479637-.9797306-1.7528152-.0217943-.0325584-.0435219-.0761452-.0653152-.1087036-.0217943-.0435867-.0544186-.0762787-.0762129-.1198654l.6423235.3048477c12.9567737 6.1890487 109.5107287 52.3098831 123.0916995 58.7970886z" fill="#f94c30"/></g></g><g><path d="m139 105.5183716c-.1018677.0360107-85.8044586 30.3230591-85.4577026 30.1986847l-5.9656906 2.1119385c-1.936924-32.6285477-13.7864189-62.6164474-31.3199978-89.888443-.2829895-.435482-.5660448-.8599319-.8491001-1.2955437-.0217943-.0325584-.0435219-.0761452-.0653152-.1087036-.0217943-.0435867-.0544186-.0762787-.0762129-.1198654l.5007954-.1740875c.1322536-.0467644 90.8000336-32.1078796 90.911705-32.1473694.0980072.1522923.1851196.2939529.2830582.4462442 17.5161294 27.6405401 27.8363579 58.1113767 32.0384606 90.9771452z" fill="#4689ff"/></g><g><path d="m36.5378456 56.1161919 3.5598526-7.4789047-7.0652199-.3266411 3.6142731-7.8163109-6.9890747-5.3234329 57.5452042-17.3855743 6.5208969-1.9703579-4.7028961 8.055912 6.8039551 2.3513527-3.7666931 5.2581844 7.174118 2.1663704-62.7597313 22.6109313.0544205-.1306305c-.0000001-.0108985.0108947-.0108985.0108947-.0108985z" fill="#fdcc59"/></g><g opacity=".7"><g><path d="m139 105.5183716c-.1018677.0360107-85.8044586 30.3230591-85.4577026 30.1986847 26.3160057-31.0475845 48.8439369-53.4968262 54.8998299-85.4577179 2.2316818-11.8659973.3265762-21.8598404-1.3825836-33.5081635-.1197357-.8273716-.1524277-1.5675678-.0980072-2.2099571 17.5161323 27.6405487 27.8363608 58.1113853 32.0384635 90.9771538z" fill="#146ff4"/></g></g><g><g><path d="m45.7213974 89.2992096c-2.2322083-7.087532-4.1513748-14.1560745-5.6684341-20.7709122-1.6548843.6022034-3.2781677 1.201889-4.8668747 1.7970657-.4166641-1.3678741-.8321037-2.7357101-1.2459946-4.1029739 5.0180244-1.5069809 10.0162926-3.0246429 15.0285454-4.5532379.0701599 1.1645699.1795425 2.3869095.3234215 3.6533127-1.8266068.6241684-3.6267357 1.2467957-5.3970604 1.8670425 1.1630363 6.4284515 2.9663963 13.6092834 5.2148895 20.8213043-1.1864243.4462586-2.3182488.8766633-3.3884926 1.2883988z" fill="#fff"/></g><g><path d="m65.9887314 82.5345001c-.5462341-1.7907333-1.0674667-3.5724182-1.5585098-5.3291626-2.3350945.7211227-4.6113014 1.4368668-6.8054161 2.1382675.4054871 1.8259964.8480225 3.675415 1.3201103 5.5256958-1.4149437.403511-2.7943611.7988358-4.1311531 1.1835403-2.3865738-9.104332-4.0116997-18.2067871-4.1799164-25.1005669 1.3530121-.3950691 2.7058983-.7922134 4.0598946-1.1897011.1098518 4.1900787.8388519 9.4325485 1.9876213 15.0689392 2.1043282-.6956253 4.277729-1.3989792 6.5019264-2.1030579-1.4957695-5.6578293-2.5782318-10.8105812-3.0072212-14.7235298 1.3528633-.4357567 2.7057648-.8708916 4.0585747-1.3051529.9154053 5.8112869 3.3652954 14.8907051 6.364502 24.2598991-1.5569993.5295183-3.0961763 1.0551379-4.6104127 1.5748293z" fill="#fff"/></g><g><path d="m86.2535629 76.301178c-1.7761459-2.9823608-3.5510101-5.9180527-5.2523117-8.6856003-1.7558899.5454407-3.5122604 1.0986252-5.260788 1.6569595.3950729 3.0597229.8386917 6.2815094 1.3128586 9.5410004-1.6372604.2376709-3.2651062.475769-4.8759918.7127686-1.3113937-9.6674576-2.1832123-19.0174904-2.1156082-24.7902031 2.1675568-.6795731 4.3352127-1.3591728 6.5029678-2.0388069.2327118.3124313.4727936.6419678.718811.985054 3.6126099 4.6944542 8.5009003 12.2149658 13.2690048 20.1695251-1.4221419.8088837-2.8573455 1.6260834-4.2989425 2.4493027zm-11.8037262-19.1204872c.2029724 2.2389946.4755859 4.7938499.8020248 7.5555534 1.114975-.3559036 2.232605-.7084045 3.3511276-1.0571861-1.4960479-2.3931046-2.8989257-4.5906487-4.1531524-6.4983673z" fill="#fff"/></g><g><path d="m108.8681946 68.7401886c-1.5050354.4423141-3.059845.9036026-4.6550293 1.3796616-4.1604691-5.1590881-8.8975601-10.575386-13.7614517-15.0894775 2.0717545 4.5163002 4.2460175 10.076004 6.2804947 15.9256363-1.51297.4555588-3.0468903.9208527-4.5950089 1.3935547-2.6613693-7.7163773-5.4570541-14.9427834-7.8046722-19.8951721-.2274933-.5012741-.4510422-.9803581-.6691742-1.4332771 1.952919-.6070061 3.9048996-1.2118111 5.8546448-1.8138084 4.2931137 3.0774422 8.394104 7.0736275 11.9487686 10.953537-1.8126144-5.0236664-3.7285919-9.5145149-5.6044617-12.9987411 1.3716812-.3912125 2.7428436-.7805748 4.1123199-1.1668777 3.5871125 6.7575337 6.6724244 15.3941533 8.89357 22.7449643z" fill="#fff"/></g><g><path d="m119.7636642 66.1144485c-1.0303955-2.8765755-2.1909485-5.0985947-3.664299-6.408493-.8948669-.718586-1.951355-1.1572952-3.2651215-1.2897186 1.0350189 2.8495903 2.0290985 5.7941132 2.9643173 8.7843246-1.2047729.3042679-2.4636612.6259308-3.768631.9635162-2.7987061-8.8592529-6.1712341-17.2230721-9.5732498-23.4527168 1.3623734-.4022255 2.7242203-.8034439 4.0844116-1.2028732 1.5431366 3.1185188 3.0688553 6.5709076 4.5372238 10.2451515 1.4285812-.6770935 2.1677628-1.5732498 2.4989624-2.6424637.4447632-1.6639061-.0631943-3.9744415-1.2434464-6.7111702 1.2895584-.3882637 2.569725-.7723122 3.8408508-1.15205 1.3391495 3.8511009 1.786972 7.1792145 1.0641861 9.71521-.1975632.9298058-.5878525 1.7482376-1.1434708 2.4156723 3.4400787 1.8623619 5.3571472 6.0929832 6.6141891 9.8018723-.9163129.287918-1.9008862.5999755-2.9459226.9337386z" fill="#fff"/></g><g><path d="m82.0730286 112.0418167c-1.3482895.43116-2.6961746.8634567-4.0434189 1.2949219-1.230835-1.996521-2.5382614-4.4992065-3.8669586-7.3422012-.1041336-.0707703-.2088394-.1422043-.3133316-.2141342-3.8471451-3.3856049-7.8174896-7.4067001-11.541008-11.5501328 1.0819931-1.0114441 2.1934814-2.0462723 3.3297958-3.100708 2.581749 2.8724594 5.2610245 5.7018967 7.92099 8.3356171.3135452-3.7835693.7006836-7.8719788 1.1486206-12.0729446 1.6348801.1927872 3.2807541.3821259 4.9292755.5672607-.6200562 5.5303421-1.1811676 10.8269348-1.6388092 15.4403915 1.4391098 3.402504 2.8269577 6.3717346 4.0748444 8.6419296z" fill="#fff"/></g><g><path d="m87.4952927 84.1977692c3.8275986-1.4036942 7.1376724.7695541 9.3394547 4.4781036 3.8487244 6.7359619 4.3529587 17.0850525-3.071846 19.245697-11.6160966 3.8307419-16.2168656-19.9544449-6.2676087-23.7238006zm6.9180603 11.2384567c-.4066772-1.5314102-2.6158218-7.419136-5.1999512-6.5591507-3.2727966 1.1942902-2.1611099 8.6308136-1.5246658 10.8166428.8334274 2.5825729 2.7538376 5.871666 5.358223 5.1125488 1.3449402-.3973999 1.9632187-2.3261261 1.9998474-4.9597855.0026855-1.441307-.2200852-2.9223099-.6334534-4.4102554z" fill="#fff"/></g><g><path d="m109.2845001 103.2768555c-7.2185593 1.8995514-8.8948822-12.9564896-10.9637222-20.1259232 1.5071945-.5360641 2.9949722-1.068779 4.4566498-1.5969009 1.7457581 6.1349411 3.2860413 19.1146469 7.0209808 18.1094437 2.4810333-.4057541 3.5121155-2.8969955 3.6024551-6.2070465.1738205-6.3360138-3.00103-14.6922073-3.6777649-17.0039902 1.4021072-.4013824 2.7643967-.7917633 4.0780334-1.1708984.8228836 3.6771927 10.10495 25.8259735-4.5186768 27.9664154.0007326.0098952.0013887.0194015.0020448.0289001z" fill="#fff"/></g></g><g><path d="m51.5246773 131.5527496c.0832367.6307831.3551521 2.0480957 1.1557045 2.1797333 1.2281837.2019501 1.2873077-1.6252899 1.2258568-2.3651581-.3606224-4.3419113-.944706-8.6652603-1.7491684-12.9472122-.169651-.9030075-.6831436-3.7353439-1.9862823-3.6721191-1.5925179.0772629-.50774 2.8180237-.3869514 3.6106415.6673735 4.3824462 1.1608695 8.7990951 1.7408408 13.1941146z" fill="#fff"/></g><g><path d="m47.2135353 107.5145874c-.0633888-.302597-.1235313-.6330338.0166969-.9085693.2535172-.4981308 1.0315781-.4818115 1.44561-.1063309.4138947.3753586.557373.9564743.6804008 1.5015411.1767044.7828979 1.6240959 4.897438-.1798096 4.723732-1.4875906-.1432419-1.7555693-4.2206573-1.9628981-5.2103729z" fill="#fff"/></g><g><path d="m43.4862938 32.5738564c.4292908-.1037979.9595947-.1693306 1.2419014.1703339.2248459.2705269.1671906.6940308-.0387077.979248-.2058945.2852135-.5252571.4632111-.8366394.6268692-2.4541245 1.2898674-5.0901451 2.2614326-7.8269234 2.7047386-.7262039.11763-1.8302383-.0816536-1.393219-1.0704269.2359581-.5338669 1.9156876-.9951973 2.4307823-1.2244644 2.0688706-.9208489 4.2213326-1.6539841 6.4228058-2.1862984z" fill="#fff"/></g><g><path d="m50.3234291 30.5158176c.2538223.3745384.1229515.9092941-.1779327 1.2471886-.3008614.3378658-.7314796.5250454-1.1477814.7021503-.5577431.237278-3.0928192 1.3300705-2.2914696-.3529739.4803009-1.0087566 2.6365128-1.4812012 3.6171837-1.596365z" fill="#fff"/></g><g opacity=".3"><path d="m99.2322617 33.6467896-62.7597313 22.6109313.0544205-.1306305c0-.0108986.0108948-.0108986.0108948-.0108986.4790039-.3809929 1.1757431-.6967392 1.8615875-1.0451775 3.5706825-1.8397255 7.1414299-3.7012444 10.6685944-5.6390457 11.0350304-6.0964584 21.7529411-13.0684776 30.1986732-22.5128593 2.6889572-3.0046387 5.138382-6.2378483 7.9361801-9.1337814l6.5208969-1.9703579-4.7028961 8.055912 6.8039551 2.3513527-3.7666931 5.2581844z" fill="#fca22b"/></g><g><path d="m62.4582291 41.6643181c-2.2162819-1.0601692-3.6741371-3.0960808-4.9770432-5.0902596-2.6221237-4.0137749-4.9943161-8.2453423-7.0513344-12.5771713-1.1892128-2.5050735-2.1702309-5.168932-1.3019485-7.6768818.8697243-2.5084314 3.6064987-4.2521954 6.514534-4.1442595 2.5185051.0925846 5.0259743 1.4477797 6.8795967 3.7177925 1.6257553 1.9917765 4.3975449 7.3842554 4.514595 7.61308.1237717.2412968.0283051.537281-.2129898.661047-.2417755.1237679-.5372849.0287838-.6610489-.2129936-.0283051-.0551662-2.8413544-5.528717-4.4013863-7.4394226-1.6751671-2.0517416-3.9187927-3.2754955-6.1552238-3.3580065-2.4283218-.0858688-4.8302536 1.4070044-5.5493469 3.4841719-.7531548 2.1740685.1607056 4.6177387 1.2606926 6.9342823 2.0378304 4.2920113 4.3884315 8.4842434 6.9860916 12.4610806 1.2271118 1.8776054 2.5914192 3.7907104 4.5788803 4.7410278 1.8406639.8807564 4.4930153.6116371 5.5056953-1.1954498 1.0539322-1.882885-.0796356-4.2723465-1.327858-6.3610229l-5.2639122-8.8094921c-.6845551-1.1450806-1.4607315-2.4431896-2.6533051-3.1272621-1.0376244-.5962868-2.6360359-.5545521-3.2678185.4562092-.6917496 1.1081409.0542068 2.6571407.7819366 3.8823338l4.9621735 8.3604755c.1381569.2336235.0614014.5348854-.1717377.6735229-.2341042.1371956-.5348854.0609207-.6735229-.1717377l-4.9621735-8.3604774c-.8692436-1.4650517-1.7428055-3.3464947-.7704201-4.904129.9416809-1.5077457 3.1344566-1.6238365 4.5908737-.7881718 1.4146805.8116779 2.2978363 2.2887211 3.0073318 3.4750557l5.2639198 8.8099689c1.392128 2.3299789 2.6403503 5.0245399 1.3417587 7.3444405-1.2578121 2.2451171-4.4921719 2.7004508-6.7870098 1.6022491z"/></g></g></svg>