<?xml version="1.0" encoding="UTF-8"?><svg id="Layer_1" xmlns="http://www.w3.org/2000/svg" viewBox="0 0 512 435.14"><g id="desktop_icon"><path d="M125.04,435.14H0v-78.04h20.1V78.34H0V0h242.11v135.98h-84.84v-57.64h-52.32v122.68l94.89-22.47v78.04l-94.89,22.47v78.04h20.1v78.04Z"/><path d="M509.04,435.14H242.11v-78.04h266.94v78.04ZM512,323.4h-125.34v-78.04h16.26l-4.14-36.06h-39.91l-4.14,36.06h16.26v78.04h-125.04v-78.04h23.94l19.81-167.02h-19.21V0h188.01l29.27,245.36h24.24v78.04ZM389.32,131.25l-6.21-52.91h-8.57l-6.21,52.91h20.99Z"/></g></svg>